<svg width="24" height="24" viewBox="0 0 24 24" fill="none" xmlns="http://www.w3.org/2000/svg">
<path opacity="0.1" fill-rule="evenodd" clip-rule="evenodd" d="M0 12C0 5.37258 5.37258 0 12 0C18.6274 0 24 5.37258 24 12C24 18.6274 18.6274 24 12 24C5.37258 24 0 18.6274 0 12Z" fill="#515151"/>
<path d="M12.5475 18.08V12.5787H14.6206L14.9288 10.4248H12.5475V9.05281C12.5475 8.43126 12.7409 8.00571 13.7374 8.00571H15V6.08536C14.3857 6.02642 13.7681 5.99796 13.1503 6.00011C11.3178 6.00011 10.0597 7.00157 10.0597 8.84003V10.4207H8V12.5747H10.0642V18.08H12.5475Z" fill="#515151"/>
</svg>
